#N canvas 645 262 545 417 10;
#X msg 307 87 close;
#X msg 18 24 devices;
#X obj 65 153 route digital;
#X obj 71 187 route 0;
#X msg 64 42 open 2;
#X obj 66 117 arduino;
#X obj 78 251 * 880;
#X obj 80 279 osc~;
#X obj 77 308 *~ 0.5;
#X obj 81 343 dac~;
#X msg 88 66 pinMode 3 input;
#X obj 74 212 0.41;
#X connect 1 0 5 0;
#X connect 2 0 3 0;
#X connect 3 0 11 0;
#X connect 4 0 5 0;
#X connect 5 0 2 0;
#X connect 6 0 7 0;
#X connect 7 0 8 0;
#X connect 8 0 9 0;
#X connect 8 0 9 1;
#X connect 10 0 5 0;
#X connect 11 0 6 0;
