#N canvas 577 188 564 344 10;
#X obj 109 74 t f b;
#X msg 31 44 devices;
#X floatatom 109 42 5 0 0 0 - - -;
#X msg 173 42 pinMode 13 1;
#X msg 277 72 digital 13 \$1;
#X msg 422 44 close;
#X obj 277 36 tgl 15 0 empty empty empty 17 7 0 10 -262144 -1 -1 0
1;
#X msg 107 111 open \$1;
#X msg 174 110 close;
#X obj 107 203 arduino;
#X connect 0 0 7 0;
#X connect 0 1 8 0;
#X connect 1 0 9 0;
#X connect 2 0 0 0;
#X connect 3 0 9 0;
#X connect 4 0 9 0;
#X connect 5 0 9 0;
#X connect 6 0 4 0;
#X connect 7 0 9 0;
#X connect 8 0 9 0;
